<svg width="22" height="22" viewBox="0 0 22 22" fill="none" xmlns="http://www.w3.org/2000/svg">
<path d="M1.27248 19.635L2.16349 19.181H2.16349L1.27248 19.635ZM2.36502 20.7275L2.81901 19.8365H2.81901L2.36502 20.7275ZM2.36502 1.27248L1.91103 0.381477H1.91103L2.36502 1.27248ZM1.27248 2.36502L0.381477 1.91103V1.91103L1.27248 2.36502ZM15.7275 2.36502L14.8365 2.81901V2.81901L15.7275 2.36502ZM14.635 1.27248L14.181 2.16349L14.181 2.16349L14.635 1.27248ZM18.2206 6.12778L17.9618 7.0937L18.2206 6.12778ZM20.8722 8.77943L21.8381 8.52061V8.52061L20.8722 8.77943ZM6 6V5C5.44772 5 5 5.44772 5 6H6ZM11 6H12C12 5.44772 11.5523 5 11 5V6ZM11 11V12C11.5523 12 12 11.5523 12 11H11ZM6 11H5C5 11.5523 5.44772 12 6 12V11ZM6 15C5.44772 15 5 15.4477 5 16C5 16.5523 5.44772 17 6 17V15ZM11 17C11.5523 17 12 16.5523 12 16C12 15.4477 11.5523 15 11 15V17ZM20 11V18.5H22V11H20ZM17 18.5V6H15V18.5H17ZM17 6V5H15V6H17ZM12 0H5V2H12V0ZM0 5V17H2V5H0ZM5 22H18.5V20H5V22ZM0 17C0 17.6836 -0.000777721 18.2564 0.0373815 18.7234C0.0764946 19.2021 0.161435 19.6571 0.381477 20.089L2.16349 19.181C2.11105 19.0781 2.05975 18.9156 2.03074 18.5606C2.00078 18.1938 2 17.7166 2 17H0ZM5 20C4.28343 20 3.80615 19.9992 3.43944 19.9693C3.0844 19.9403 2.92194 19.889 2.81901 19.8365L1.91103 21.6185C2.34289 21.8386 2.79785 21.9235 3.27657 21.9626C3.74362 22.0008 4.31644 22 5 22V20ZM0.381477 20.089C0.717034 20.7475 1.25247 21.283 1.91103 21.6185L2.81901 19.8365C2.53677 19.6927 2.3073 19.4632 2.16349 19.181L0.381477 20.089ZM5 0C4.31644 0 3.74362 -0.000777721 3.27657 0.0373815C2.79785 0.0764946 2.34289 0.161435 1.91103 0.381477L2.81901 2.16349C2.92194 2.11105 3.0844 2.05975 3.43944 2.03074C3.80615 2.00078 4.28343 2 5 2V0ZM2 5C2 4.28343 2.00078 3.80615 2.03074 3.43944C2.05975 3.0844 2.11105 2.92194 2.16349 2.81901L0.381477 1.91103C0.161435 2.34289 0.0764946 2.79785 0.0373815 3.27657C-0.000777721 3.74362 0 4.31644 0 5H2ZM1.91103 0.381477C1.25247 0.717034 0.717034 1.25247 0.381477 1.91103L2.16349 2.81901C2.3073 2.53677 2.53677 2.3073 2.81901 2.16349L1.91103 0.381477ZM17 5C17 4.31644 17.0008 3.74362 16.9626 3.27657C16.9235 2.79785 16.8386 2.34289 16.6185 1.91103L14.8365 2.81901C14.889 2.92194 14.9403 3.0844 14.9693 3.43944C14.9992 3.80615 15 4.28343 15 5H17ZM12 2C12.7166 2 13.1938 2.00078 13.5606 2.03074C13.9156 2.05975 14.0781 2.11105 14.181 2.16349L15.089 0.381477C14.6571 0.161435 14.2021 0.0764946 13.7234 0.0373815C13.2564 -0.000777721 12.6836 0 12 0V2ZM16.6185 1.91103C16.283 1.25247 15.7475 0.717034 15.089 0.381477L14.181 2.16349C14.4632 2.3073 14.6927 2.53677 14.8365 2.81901L16.6185 1.91103ZM18.5 20C17.6716 20 17 19.3284 17 18.5H15C15 20.433 16.567 22 18.5 22V20ZM20 18.5C20 19.3284 19.3284 20 18.5 20V22C20.433 22 22 20.433 22 18.5H20ZM16 7C17.2268 7 17.6441 7.00859 17.9618 7.0937L18.4794 5.16185C17.8433 4.99141 17.0981 5 16 5V7ZM22 11C22 9.90192 22.0086 9.15671 21.8381 8.52061L19.9063 9.03825C19.9914 9.3559 20 9.77315 20 11H22ZM17.9618 7.0937C18.9108 7.34799 19.652 8.08924 19.9063 9.03825L21.8381 8.52061C21.3989 6.88142 20.1186 5.60107 18.4794 5.16185L17.9618 7.0937ZM6 7H11V5H6V7ZM10 6V11H12V6H10ZM11 10H6V12H11V10ZM7 11V6H5V11H7ZM6 17H11V15H6V17Z" fill="#8C92AB"/>
</svg>
