<svg width="45" height="46" viewBox="0 0 45 46" fill="none" xmlns="http://www.w3.org/2000/svg">
<rect x="5.625" y="11.75" width="33.75" height="28.125" rx="2" stroke="#8C92AB" stroke-width="2"/>
<path d="M5.625 15.75C5.625 13.8644 5.625 12.9216 6.21079 12.3358C6.79657 11.75 7.73938 11.75 9.625 11.75H35.375C37.2606 11.75 38.2034 11.75 38.7892 12.3358C39.375 12.9216 39.375 13.8644 39.375 15.75V19.25H5.625V15.75Z" fill="#8C92AB"/>
<path d="M13.125 6.125L13.125 11.75" stroke="#8C92AB" stroke-width="3" stroke-linecap="round"/>
<path d="M31.875 6.125L31.875 11.75" stroke="#8C92AB" stroke-width="3" stroke-linecap="round"/>
<rect x="13.125" y="23" width="7.5" height="3.75" rx="0.5" fill="#8C92AB"/>
<rect x="13.125" y="30.5" width="7.5" height="3.75" rx="0.5" fill="#8C92AB"/>
<rect x="24.375" y="23" width="7.5" height="3.75" rx="0.5" fill="#8C92AB"/>
<rect x="24.375" y="30.5" width="7.5" height="3.75" rx="0.5" fill="#8C92AB"/>
</svg>
