<svg width="25" height="21" viewBox="0 0 25 21" fill="none" xmlns="http://www.w3.org/2000/svg">
<path d="M14.0817 2.2643L13.0839 2.19827V2.19827L14.0817 2.2643ZM11.492 0C10.9397 0 10.492 0.447715 10.492 1C10.492 1.55228 10.9397 2 11.492 2V0ZM1.00253 2.2643L2.00035 2.19827V2.19827L1.00253 2.2643ZM3.59224 2C4.14452 2 4.59224 1.55228 4.59224 1C4.59224 0.447715 4.14452 0 3.59224 0V2ZM21.7084 13.6667C21.7084 13.1144 21.2607 12.6667 20.7084 12.6667C20.1561 12.6667 19.7084 13.1144 19.7084 13.6667H21.7084ZM23 8.6C23 9.76051 22.0108 10.7667 20.7084 10.7667V12.7667C23.0418 12.7667 25 10.9373 25 8.6H23ZM20.7084 10.7667C19.406 10.7667 18.4168 9.76051 18.4168 8.6H16.4169C16.4169 10.9373 18.3751 12.7667 20.7084 12.7667V10.7667ZM18.4168 8.6C18.4168 7.43949 19.406 6.43333 20.7084 6.43333V4.43333C18.3751 4.43333 16.4169 6.2627 16.4169 8.6H18.4168ZM20.7084 6.43333C22.0108 6.43333 23 7.43949 23 8.6H25C25 6.2627 23.0418 4.43333 20.7084 4.43333V6.43333ZM20.3667 8.6C20.3667 8.36138 20.5565 8.23333 20.7084 8.23333V10.2333C21.5875 10.2333 22.3667 9.53818 22.3667 8.6H20.3667ZM20.7084 8.23333C20.8603 8.23333 21.0501 8.36139 21.0501 8.6H19.0501C19.0501 9.53817 19.8294 10.2333 20.7084 10.2333V8.23333ZM21.0501 8.6C21.0501 8.83861 20.8603 8.96667 20.7084 8.96667V6.96667C19.8294 6.96667 19.0501 7.66183 19.0501 8.6H21.0501ZM20.7084 8.96667C20.5565 8.96667 20.3667 8.83861 20.3667 8.6H22.3667C22.3667 7.66183 21.5875 6.96667 20.7084 6.96667V8.96667ZM8.51707 12.4C8.51707 12.8609 8.11739 13.3 7.54213 13.3V15.3C9.14833 15.3 10.5171 14.0377 10.5171 12.4H8.51707ZM7.54213 13.3C6.96686 13.3 6.56718 12.8609 6.56718 12.4H4.56718C4.56718 14.0377 5.93592 15.3 7.54213 15.3V13.3ZM6.56718 12.4C6.56718 11.9391 6.96686 11.5 7.54213 11.5V9.5C5.93592 9.5 4.56718 10.7623 4.56718 12.4H6.56718ZM7.54213 11.5C8.11739 11.5 8.51707 11.9391 8.51707 12.4H10.5171C10.5171 10.7623 9.14833 9.5 7.54213 9.5V11.5ZM13.0839 2.19827C12.956 4.13101 12.52 6.5187 11.5913 8.38793C10.6668 10.2487 9.37183 11.4 7.54213 11.4V13.4C10.4437 13.4 12.2861 11.4844 13.3824 9.2778C14.4745 7.07967 14.9426 4.39951 15.0795 2.33034L13.0839 2.19827ZM12.8086 0H11.492V2H12.8086V0ZM15.0795 2.33034C15.1693 0.974219 14.0296 0 12.8086 0V2C12.9118 2 12.9897 2.03986 13.0348 2.08407C13.0763 2.12484 13.0863 2.16224 13.0839 2.19827L15.0795 2.33034ZM0.00471526 2.33034C0.141651 4.39951 0.60976 7.07967 1.70184 9.2778C2.79814 11.4844 4.64052 13.4 7.54213 13.4V11.4C5.71242 11.4 4.41742 10.2487 3.49297 8.38793C2.56429 6.5187 2.12826 4.13101 2.00035 2.19827L0.00471526 2.33034ZM2.27561 2H3.59224V0H2.27561V2ZM2.00035 2.19827C1.99797 2.16224 2.00794 2.12484 2.04949 2.08407C2.09454 2.03986 2.1724 2 2.27561 2V0C1.05461 0 -0.0850319 0.97422 0.00471526 2.33034L2.00035 2.19827ZM8.54213 13.6667V12.4H6.54213V13.6667H8.54213ZM14.1253 19C11.005 19 8.54213 16.5761 8.54213 13.6667H6.54213C6.54213 17.7529 9.97403 21 14.1253 21V19ZM19.7084 13.6667C19.7084 16.5761 17.2456 19 14.1253 19V21C18.2765 21 21.7084 17.7529 21.7084 13.6667H19.7084Z" fill="#EE7F00"/>
</svg>
