<svg width="18" height="18" viewBox="0 0 18 18" fill="none" xmlns="http://www.w3.org/2000/svg">
<path fill-rule="evenodd" clip-rule="evenodd" d="M14.2038 7.7957L15.9998 5.9997C16.545 5.45445 16.8176 5.18182 16.9634 4.88773C17.2407 4.32818 17.2407 3.67122 16.9634 3.11167C16.8176 2.81757 16.545 2.54495 15.9998 1.9997C15.4545 1.45445 15.1819 1.18182 14.8878 1.03609C14.3282 0.758804 13.6713 0.758804 13.1117 1.03609C12.8176 1.18182 12.545 1.45445 11.9998 1.9997L10.1811 3.81835C11.145 5.46895 12.5311 6.84451 14.2038 7.7957ZM8.72666 5.27281L1.85615 12.1433C1.43109 12.5684 1.21856 12.7809 1.07883 13.042C0.939091 13.3031 0.880146 13.5978 0.762256 14.1873L0.14686 17.2643C0.0803376 17.5969 0.0470765 17.7632 0.141684 17.8578C0.236293 17.9524 0.402598 17.9191 0.735208 17.8526L3.81219 17.2372C4.40164 17.1193 4.69637 17.0604 4.95746 16.9206C5.21856 16.7809 5.43109 16.5684 5.85615 16.1433L12.7456 9.25392C11.1239 8.23827 9.7522 6.87597 8.72666 5.27281Z" fill="#0E9F6B"/>
</svg>
