<svg width="22" height="21" viewBox="0 0 22 21" fill="none" xmlns="http://www.w3.org/2000/svg">
<path d="M3.86237 14.329L4.60628 14.9973H4.60628L3.86237 14.329ZM10.3337 14.7536L9.51939 15.334L9.51939 15.334L10.3337 14.7536ZM10.7531 15.342L11.5674 14.7616L11.5674 14.7616L10.7531 15.342ZM18.0904 15.9862L18.9524 15.4793L18.9524 15.4793L18.0904 15.9862ZM13.1406 15.4669L12.3815 14.816L12.3815 14.816L13.1406 15.4669ZM13.6632 14.8844L12.9783 14.1557L12.9783 14.1557L13.6632 14.8844ZM17.6699 15.3047L16.8644 15.8972L16.8644 15.8972L17.6699 15.3047ZM10.9723 15.6363L10.2197 16.2947L10.2197 16.2947L10.9723 15.6363ZM12.8987 15.7371L12.2097 15.0123L12.2097 15.0123L12.8987 15.7371ZM6.13751 12.2403L5.77561 11.3081L6.13751 12.2403ZM8.28382 12.3811L8.75977 11.5016H8.75977L8.28382 12.3811ZM1 16.2H5.36442e-07V16.2L1 16.2ZM16.825 0.677069C16.2898 0.540424 15.7453 0.863447 15.6086 1.39856C15.472 1.93367 15.795 2.47824 16.3301 2.61489L16.825 0.677069ZM5.69737 2.60789C6.23273 2.47222 6.55674 1.92824 6.42107 1.39288C6.2854 0.85752 5.74142 0.533506 5.20606 0.669176L5.69737 2.60789ZM1.74391 18.1837L4.60628 14.9973L3.11846 13.6608L0.256087 16.8471L1.74391 18.1837ZM9.51939 15.334L9.93874 15.9224L11.5674 14.7616L11.1481 14.1732L9.51939 15.334ZM17.2284 16.493L18.4713 18.6069L20.1954 17.5931L18.9524 15.4793L17.2284 16.493ZM13.8998 16.1179C14.1878 15.782 14.2791 15.6778 14.348 15.613L12.9783 14.1557C12.8104 14.3135 12.6323 14.5235 12.3815 14.816L13.8998 16.1179ZM18.9524 15.4793C18.7517 15.1378 18.6124 14.8983 18.4754 14.7121L16.8644 15.8972C16.9246 15.979 17 16.1046 17.2284 16.493L18.9524 15.4793ZM14.348 15.613C15.1017 14.9047 16.1958 14.9883 16.8644 15.8972L18.4754 14.7121C17.1282 12.8806 14.6453 12.589 12.9783 14.1557L14.348 15.613ZM9.93874 15.9224C10.0358 16.0587 10.1271 16.1889 10.2197 16.2947L11.725 14.9778C11.7256 14.9786 11.7175 14.9695 11.6899 14.9321C11.6617 14.8938 11.6253 14.8429 11.5674 14.7616L9.93874 15.9224ZM12.3815 14.816C12.3172 14.8909 12.2772 14.9376 12.2462 14.9725C12.216 15.0065 12.2079 15.014 12.2097 15.0123L13.5876 16.4619C13.69 16.3646 13.7927 16.2427 13.8998 16.1179L12.3815 14.816ZM10.2197 16.2947C11.1084 17.3106 12.5987 17.4019 13.5876 16.4619L12.2097 15.0123C12.1189 15.0986 12.0338 15.1178 11.9706 15.1145C11.9065 15.1111 11.8158 15.0817 11.725 14.9778L10.2197 16.2947ZM4.60628 14.9973C5.17104 14.3686 5.5574 13.9396 5.87719 13.6337C6.19331 13.3314 6.37269 13.2217 6.49942 13.1725L5.77561 11.3081C5.29005 11.4966 4.88614 11.8142 4.49491 12.1883C4.10733 12.5589 3.66227 13.0554 3.11846 13.6608L4.60628 14.9973ZM11.1481 14.1732C10.6684 13.5002 10.2773 12.9504 9.93095 12.5331C9.58165 12.1124 9.2167 11.7489 8.75977 11.5016L7.80788 13.2606C7.93527 13.3295 8.10675 13.4669 8.39206 13.8106C8.68029 14.1578 9.02205 14.6362 9.51939 15.334L11.1481 14.1732ZM6.49942 13.1725C6.92653 13.0067 7.39039 13.0346 7.80788 13.2606L8.75977 11.5016C7.83311 11.0001 6.75697 10.9271 5.77561 11.3081L6.49942 13.1725ZM7 6.7V1H5V6.7H7ZM17 6.7V1H15V6.7H17ZM2 16.2V4.8H5.36442e-07V16.2H2ZM20 4.8V16.2H22V4.8H20ZM16.3301 2.61489C18.0464 3.05315 19.1708 3.65244 19.6929 4.2112L21.1542 2.8457C20.2411 1.86852 18.6687 1.14789 16.825 0.677069L16.3301 2.61489ZM19.6929 4.2112C19.9379 4.47336 19.9928 4.66346 19.9992 4.77393C20.0053 4.87709 19.9774 5.04363 19.7839 5.28419L21.3421 6.53794C21.7756 5.99916 22.0369 5.35837 21.9958 4.65706C21.9552 3.96305 21.6269 3.35152 21.1542 2.8457L19.6929 4.2112ZM19.7839 5.28419C19.3555 5.81667 18.3345 6.42693 16.6709 6.89386L17.2113 8.81946C18.9978 8.31805 20.5165 7.56413 21.3421 6.53794L19.7839 5.28419ZM16.6709 6.89386C15.0493 7.34899 13.0535 7.60138 10.9831 7.59999L10.9817 9.59999C13.2005 9.60148 15.3827 9.33267 17.2113 8.81946L16.6709 6.89386ZM10.9831 7.59999C8.91258 7.59861 6.91947 7.34354 5.30269 6.88641L4.75855 8.81097C6.58295 9.3268 8.76299 9.59851 10.9817 9.59999L10.9831 7.59999ZM5.30269 6.88641C3.64332 6.41725 2.63086 5.80628 2.20973 5.27621L0.64378 6.52031C1.4623 7.55058 2.97673 8.30718 4.75855 8.81097L5.30269 6.88641ZM2.20973 5.27621C2.02016 5.03759 1.99404 4.87283 2.00103 4.76977C2.00859 4.65828 2.06606 4.46626 2.31515 4.20265L0.861449 2.82906C0.385803 3.33245 0.0525946 3.94155 0.00560957 4.63447C-0.0419469 5.33581 0.213527 5.97875 0.64378 6.52031L2.20973 5.27621ZM2.31515 4.20265C2.84478 3.64213 3.97704 3.04385 5.69737 2.60789L5.20606 0.669176C3.35791 1.13753 1.78129 1.85556 0.861449 2.82906L2.31515 4.20265ZM20 16.2C20 16.3299 19.9352 16.5756 19.5628 16.9173C19.19 17.2593 18.5831 17.6227 17.7158 17.9522L18.4263 19.8218C19.4344 19.4387 20.2919 18.9625 20.9148 18.3911C21.538 17.8194 22 17.0779 22 16.2H20ZM17.7158 17.9522C15.984 18.6103 13.5677 19 11 19V21C13.7367 21 16.4074 20.589 18.4263 19.8218L17.7158 17.9522ZM11 19C8.43233 19 6.01603 18.6103 4.28415 17.9522L3.57372 19.8218C5.59256 20.589 8.26335 21 11 21V19ZM4.28415 17.9522C3.41686 17.6227 2.80998 17.2593 2.43722 16.9173C2.06478 16.5756 2 16.3299 2 16.2L5.36442e-07 16.2C8.9407e-07 17.0779 0.462007 17.8194 1.08519 18.3911C1.70805 18.9625 2.56565 19.4387 3.57372 19.8218L4.28415 17.9522Z" fill="#8C92AB"/>
</svg>
