<svg width="226" height="59" viewBox="0 0 226 59" fill="none" xmlns="http://www.w3.org/2000/svg">
<path d="M73.126 36.014C72.854 36.014 72.6387 36.0027 72.48 35.98C72.3213 35.9347 72.208 35.8327 72.14 35.674C71.936 35.334 71.698 34.3253 71.426 32.648C71.154 30.9707 70.8933 29.044 70.644 26.868C70.1 20.2267 69.6807 16.838 69.386 16.702C69.1367 17.246 68.7513 18.2773 68.23 19.796C67.7087 21.292 67.108 23.2527 66.428 25.678C65.68 28.2847 65.1133 30.0867 64.728 31.084C64.3427 32.0587 64.0027 32.6593 63.708 32.886C63.5267 33.0447 63.3 33.2033 63.028 33.362C62.7787 33.498 62.5633 33.566 62.382 33.566C62.1553 33.566 62.008 33.5433 61.94 33.498C61.872 33.43 61.7927 33.2487 61.702 32.954C61.6113 32.614 61.396 31.56 61.056 29.792C60.716 28.0013 60.4553 26.392 60.274 24.964L60.07 23.536C59.6847 20.5893 59.424 18.946 59.288 18.606C58.8573 18.9913 58.4493 19.8527 58.064 21.19C57.6787 22.5047 57.2367 24.3747 56.738 26.8C56.262 28.6813 55.684 31.7413 55.004 35.98C54.9813 36.2293 54.8113 36.456 54.494 36.66C54.1767 36.864 53.8933 36.966 53.644 36.966C53.2813 36.966 53.0773 36.6147 53.032 35.912C53.0093 35.2093 52.8507 33.6907 52.556 31.356C52.284 29.0213 52.0347 26.97 51.808 25.202C51.4907 22.686 51.06 20.3513 50.516 18.198C50.3573 17.518 50.278 17.1327 50.278 17.042C50.278 16.702 50.4367 16.43 50.754 16.226C51.094 15.9993 51.4567 15.886 51.842 15.886C52.0233 15.886 52.216 16.5887 52.42 17.994C52.624 19.3993 52.8393 21.1673 53.066 23.298L53.168 24.42C53.2587 25.168 53.3607 25.95 53.474 26.766C53.9047 30.234 54.1427 32.41 54.188 33.294C54.6413 30.6647 55.1513 28.024 55.718 25.372L56.024 23.876C56.5227 21.4733 57.0667 19.66 57.656 18.436C58.2453 17.1893 59.0047 16.566 59.934 16.566C60.2287 16.566 60.5573 17.3367 60.92 18.878C61.2827 20.3967 61.566 22.176 61.77 24.216C61.9287 25.6667 62.1327 27.0833 62.382 28.466C62.6313 29.8487 62.858 30.812 63.062 31.356C63.198 30.9707 63.47 30.1207 63.878 28.806C64.3087 27.4913 64.7053 26.2447 65.068 25.066C66.1787 21.2807 67.3573 17.892 68.604 14.9C68.8307 14.424 69.046 14.084 69.25 13.88C69.4767 13.6533 69.862 13.54 70.406 13.54C70.7007 13.54 71.018 14.832 71.358 17.416C71.698 20 71.9813 22.992 72.208 26.392C72.82 31.1973 73.3753 33.8153 73.874 34.246C74.214 34.5407 74.384 34.858 74.384 35.198C74.384 35.3567 74.248 35.538 73.976 35.742C73.7267 35.9233 73.4433 36.014 73.126 36.014ZM88.073 25.372C87.801 27.3667 87.6537 28.4887 87.631 28.738C87.3363 31.526 87.121 33.6567 86.985 35.13C86.8717 36.5807 86.815 37.8953 86.815 39.074C86.815 40.0487 86.883 40.8193 87.019 41.386C87.1777 41.9527 87.3363 42.3947 87.495 42.712C87.6763 43.052 87.767 43.256 87.767 43.324C87.767 43.528 87.5857 43.7093 87.223 43.868C86.8603 44.0267 86.4863 44.106 86.101 44.106C85.8063 44.106 85.5683 43.7093 85.387 42.916C85.2283 42.1227 85.149 40.8873 85.149 39.21C85.149 37.9407 85.2737 36.2293 85.523 34.076L86.033 29.384C85.421 30.5627 84.6617 31.696 83.755 32.784C82.871 33.8493 81.953 34.382 81.001 34.382C80.117 34.382 79.3237 33.6113 78.621 32.07C77.9183 30.5287 77.363 28.7833 76.955 26.834C76.5697 24.8847 76.377 23.4567 76.377 22.55C76.377 21.9833 76.547 21.7 76.887 21.7C77.3857 21.7 77.703 22.1647 77.839 23.094C78.7003 29.3953 79.9017 32.546 81.443 32.546C82.055 32.546 82.5877 32.308 83.041 31.832C83.517 31.3333 84.0723 30.574 84.707 29.554C85.0017 29.078 85.319 28.4433 85.659 27.65C85.999 26.8567 86.2597 26.1993 86.441 25.678L86.679 22.244C86.7243 21.7227 86.7923 21.36 86.883 21.156C86.9737 20.9293 87.155 20.816 87.427 20.816C87.6537 20.816 87.8803 20.952 88.107 21.224C88.3337 21.4733 88.447 21.7227 88.447 21.972C88.447 22.4933 88.3223 23.6267 88.073 25.372ZM110.438 28.534C110.03 28.67 109.532 28.7607 108.942 28.806C108.376 28.8287 108.002 28.84 107.82 28.84C107.798 29.5427 107.752 30.3247 107.684 31.186C107.616 32.0473 107.56 32.7613 107.514 33.328L107.412 34.382L107.344 35.47L107.14 38.088C107.05 39.244 106.676 39.822 106.018 39.822C105.769 39.822 105.52 39.5273 105.27 38.938C105.044 38.3713 104.93 37.9067 104.93 37.544C104.93 37.4533 105.021 37.272 105.202 37C105.384 36.728 105.497 36.388 105.542 35.98C105.633 35.3453 105.735 34.2913 105.848 32.818C105.962 31.3447 106.041 30.1093 106.086 29.112C105.202 29.18 104.25 29.282 103.23 29.418C102.777 29.4633 101.757 29.5653 100.17 29.724C98.5837 29.8827 97.337 29.9847 96.4303 30.03C96.3397 31.526 96.2377 33.3507 96.1243 35.504C96.011 37.6573 95.9543 38.972 95.9543 39.448C95.9543 39.6293 95.977 39.8673 96.0223 40.162C96.0903 40.4567 96.1243 40.6833 96.1243 40.842C96.1243 41.046 95.9657 41.25 95.6483 41.454C95.3537 41.658 95.1157 41.76 94.9343 41.76C94.7077 41.76 94.515 41.6127 94.3563 41.318C94.2203 41.0233 94.1523 40.6833 94.1523 40.298C94.1523 40.094 94.175 39.754 94.2203 39.278C94.2657 38.8247 94.2997 38.428 94.3223 38.088C94.413 37.476 94.4697 36.9773 94.4923 36.592C94.6057 35.2547 94.6963 33.9627 94.7643 32.716C94.8323 31.4693 94.8777 30.6307 94.9003 30.2C93.4723 30.4493 92.1237 30.574 90.8543 30.574C90.4237 30.574 90.061 30.472 89.7663 30.268C89.449 30.0413 89.2903 29.724 89.2903 29.316C89.2903 29.0213 89.3697 28.806 89.5283 28.67C89.6643 28.5113 89.959 28.432 90.4123 28.432L92.2143 28.466C93.393 28.5113 94.345 28.534 95.0703 28.534C95.1837 26.6073 95.2403 25.066 95.2403 23.91C95.2403 21.2807 95.2177 18.9233 95.1723 16.838V15.58C95.1723 15.24 95.297 14.968 95.5463 14.764C95.8183 14.5373 96.1243 14.424 96.4643 14.424C96.7137 14.424 96.8837 14.6167 96.9743 15.002C97.065 15.3873 97.1103 15.818 97.1103 16.294C97.1103 16.7927 97.0537 17.8127 96.9403 19.354C96.8043 21.9833 96.7363 23.3773 96.7363 23.536L96.5663 28.398C98.4703 28.3527 101.7 28.058 106.256 27.514C106.347 26.8567 106.506 25.134 106.732 22.346C106.823 20.8727 106.902 19.796 106.97 19.116L107.174 16.464C107.469 13.132 107.616 11.0467 107.616 10.208C107.616 9.91333 107.73 9.67533 107.956 9.494C108.183 9.31267 108.444 9.222 108.738 9.222C109.146 9.222 109.35 9.61867 109.35 10.412C109.35 10.9107 109.237 12.2367 109.01 14.39C108.761 17.2007 108.625 18.7647 108.602 19.082C108.466 20.8273 108.33 22.4933 108.194 24.08C108.081 25.6667 108.002 26.732 107.956 27.276C108.364 27.208 108.727 27.106 109.044 26.97C109.452 26.834 109.77 26.766 109.996 26.766C110.223 26.766 110.484 26.902 110.778 27.174C111.073 27.446 111.22 27.6387 111.22 27.752C111.22 28.1147 110.96 28.3753 110.438 28.534ZM127.969 28.84C127.969 29.248 127.663 30.1433 127.051 31.526C126.461 32.9087 125.555 34.1893 124.331 35.368C123.129 36.5467 121.645 37.136 119.877 37.136C118.426 37.136 117.213 36.6827 116.239 35.776C115.264 34.8693 114.777 33.4753 114.777 31.594C114.777 29.826 115.185 28.0807 116.001 26.358C116.817 24.6127 117.882 23.196 119.197 22.108C120.511 20.9973 121.871 20.442 123.277 20.442C124.115 20.442 124.818 20.6347 125.385 21.02C125.974 21.3827 126.269 21.9153 126.269 22.618C126.269 23.4113 125.815 24.182 124.909 24.93C124.025 25.678 122.869 26.3353 121.441 26.902C120.013 27.4687 118.539 27.8767 117.021 28.126C116.749 29.1687 116.613 30.1887 116.613 31.186C116.613 32.5007 116.919 33.5207 117.531 34.246C118.165 34.9713 119.061 35.334 120.217 35.334C121.962 35.334 123.379 34.7107 124.467 33.464C125.555 32.2173 126.461 30.812 127.187 29.248C127.232 29.1573 127.311 28.9873 127.425 28.738C127.538 28.466 127.64 28.33 127.731 28.33C127.889 28.33 127.969 28.5 127.969 28.84ZM122.869 21.836C122.007 21.836 121.18 22.1193 120.387 22.686C119.593 23.2527 118.925 23.9327 118.381 24.726C117.859 25.5193 117.519 26.222 117.361 26.834C118.403 26.7207 119.503 26.426 120.659 25.95C121.815 25.474 122.778 24.9527 123.549 24.386C124.342 23.8193 124.739 23.3547 124.739 22.992C124.739 22.6293 124.546 22.346 124.161 22.142C123.798 21.938 123.367 21.836 122.869 21.836ZM145.236 35.742C145.236 36.014 145.123 36.3313 144.896 36.694C144.669 37.034 144.443 37.204 144.216 37.204C143.831 37.204 143.536 36.966 143.332 36.49C143.128 36.014 143.026 35.4587 143.026 34.824C143.026 34.28 143.06 32.648 143.128 29.928L143.162 28.636C143.162 28.1147 143.026 27.7407 142.754 27.514C141.734 29.2367 140.782 30.7327 139.898 32.002C139.014 33.2713 137.892 34.4727 136.532 35.606C135.172 36.7167 133.744 37.272 132.248 37.272C131.523 37.272 130.956 37.0453 130.548 36.592C130.163 36.1387 129.97 35.5493 129.97 34.824C129.97 33.9173 130.378 32.682 131.194 31.118C132.01 29.5313 133.053 27.9333 134.322 26.324C135.591 24.692 136.861 23.3547 138.13 22.312C138.969 21.632 139.637 21.1787 140.136 20.952C140.635 20.7027 141.077 20.578 141.462 20.578C141.825 20.578 142.199 20.6913 142.584 20.918C142.969 21.1447 143.298 21.462 143.57 21.87C143.842 22.278 143.978 22.7427 143.978 23.264C143.978 23.9667 143.785 24.6353 143.4 25.27L143.978 25.1C144.227 25.1 144.375 25.406 144.42 26.018C144.443 26.3807 144.465 27.1173 144.488 28.228C144.533 29.3387 144.567 30.2567 144.59 30.982C144.613 31.73 144.635 32.4553 144.658 33.158C144.681 33.8607 144.703 34.416 144.726 34.824C144.749 34.9827 144.839 35.1527 144.998 35.334C145.157 35.4927 145.236 35.6287 145.236 35.742ZM142.278 26.188C142.55 25.508 142.686 24.7713 142.686 23.978C142.686 23.502 142.539 23.094 142.244 22.754C141.972 22.3913 141.598 22.21 141.122 22.21C140.555 22.21 139.83 22.5953 138.946 23.366C137.926 24.2273 136.849 25.3833 135.716 26.834C134.583 28.262 133.642 29.6787 132.894 31.084C132.146 32.4893 131.772 33.6 131.772 34.416C131.772 35.096 132.089 35.436 132.724 35.436C133.948 35.436 135.127 34.9827 136.26 34.076C137.393 33.1693 138.402 32.0927 139.286 30.846C140.193 29.5767 141.19 28.024 142.278 26.188ZM150.516 36.83C150.244 36.83 149.983 36.5127 149.734 35.878C149.507 35.2207 149.394 34.2347 149.394 32.92C149.417 30.3587 149.451 27.2647 149.496 23.638C149.564 20.0113 149.621 17.28 149.666 15.444C149.689 14.7867 149.802 14.1747 150.006 13.608C150.233 13.0413 150.618 12.758 151.162 12.758C151.343 12.758 151.457 12.86 151.502 13.064C151.57 13.2453 151.604 13.608 151.604 14.152C151.604 14.1747 151.593 14.254 151.57 14.39C151.57 14.5033 151.57 14.7187 151.57 15.036C151.162 20.9973 150.958 26.8113 150.958 32.478C150.958 33.2033 151.117 33.974 151.434 34.79C151.774 35.606 151.944 36.0367 151.944 36.082C151.944 36.3087 151.797 36.49 151.502 36.626C151.207 36.762 150.879 36.83 150.516 36.83ZM168.237 24.284C166.151 24.6467 164.984 24.8507 164.735 24.896L162.525 25.27C162.525 26.4487 162.536 27.684 162.559 28.976C162.604 30.268 162.661 31.4013 162.729 32.376C162.819 33.6907 162.978 34.6993 163.205 35.402C163.431 36.1047 163.556 36.5013 163.579 36.592C163.579 36.8187 163.431 37.0227 163.137 37.204C162.865 37.408 162.604 37.51 162.355 37.51C162.219 37.51 162.105 37.4647 162.015 37.374C161.924 37.306 161.845 37.1813 161.777 37C161.641 36.6827 161.505 36.0933 161.369 35.232C161.255 34.3707 161.165 33.4187 161.097 32.376C161.029 31.4467 160.972 30.37 160.927 29.146C160.904 27.8993 160.893 26.698 160.893 25.542C159.623 25.746 158.32 25.9953 156.983 26.29C155.781 26.5393 155.067 26.664 154.841 26.664C154.569 26.664 154.308 26.5847 154.059 26.426C153.832 26.2673 153.719 26.052 153.719 25.78C153.719 25.4853 153.821 25.2927 154.025 25.202C154.229 25.1113 154.569 25.066 155.045 25.066C155.385 25.066 155.883 25.0093 156.541 24.896C157.198 24.76 157.617 24.6693 157.799 24.624C159.317 24.3293 160.349 24.1367 160.893 24.046C160.893 23.57 160.87 22.9467 160.825 22.176C160.779 21.1333 160.757 20.34 160.757 19.796C160.757 18.912 160.779 18.232 160.825 17.756C160.893 17.2573 161.006 16.8153 161.165 16.43C161.346 15.9767 161.686 15.75 162.185 15.75C162.389 15.75 162.525 15.784 162.593 15.852C162.661 15.92 162.695 16.0447 162.695 16.226C162.695 16.362 162.638 16.7587 162.525 17.416C162.411 18.0733 162.355 18.946 162.355 20.034C162.355 20.8727 162.377 21.8133 162.423 22.856L162.457 23.774C163.477 23.6153 165.494 23.196 168.509 22.516C168.69 22.4707 168.837 22.312 168.951 22.04C169.087 21.768 169.223 21.632 169.359 21.632C169.608 21.632 169.857 21.7793 170.107 22.074C170.379 22.346 170.515 22.6293 170.515 22.924C170.515 23.3093 170.345 23.604 170.005 23.808C169.687 24.012 169.098 24.1707 168.237 24.284ZM186.092 38.462C185.865 38.462 185.672 38.4053 185.514 38.292C185.355 38.2013 185.276 38.0653 185.276 37.884L185.344 35.538C185.457 32.75 185.514 30.472 185.514 28.704C185.514 26.12 185.332 24.318 184.97 23.298C184.607 22.2553 184.188 21.734 183.712 21.734C182.646 21.734 181.309 23.3887 179.7 26.698C178.09 29.9847 176.538 33.5773 175.042 37.476C174.928 37.7933 174.77 38.0993 174.566 38.394C174.384 38.6887 174.192 38.836 173.988 38.836C173.489 38.836 173.24 38.6773 173.24 38.36C173.24 36.9773 173.183 34.3933 173.07 30.608C172.956 26.8 172.866 24.2953 172.798 23.094C172.594 19.0367 172.401 16.532 172.22 15.58C172.038 14.628 171.948 14.118 171.948 14.05C171.948 13.8233 172.072 13.6533 172.322 13.54C172.571 13.4267 172.888 13.37 173.274 13.37C173.591 13.37 173.818 14.0953 173.954 15.546C174.112 16.974 174.226 18.81 174.294 21.054L174.328 22.006C174.373 22.7087 174.407 24.726 174.43 28.058C174.452 31.3673 174.464 33.804 174.464 35.368C175.506 32.7613 176.481 30.438 177.388 28.398C178.317 26.358 179.382 24.454 180.584 22.686C181.785 20.8953 182.896 20 183.916 20C184.777 20 185.502 20.7253 186.092 22.176C186.681 23.604 186.976 25.746 186.976 28.602C186.976 29.8713 186.998 31.6393 187.044 33.906L187.078 37.476C187.078 37.748 186.987 37.9747 186.806 38.156C186.624 38.36 186.386 38.462 186.092 38.462ZM192.368 16.226C191.982 16.226 191.586 16.0673 191.178 15.75C190.792 15.4327 190.6 15.172 190.6 14.968C190.6 14.7187 190.713 14.4807 190.94 14.254C191.189 14.0273 191.438 13.914 191.688 13.914C191.688 13.914 191.767 13.948 191.926 14.016C192.107 14.0613 192.311 14.2087 192.538 14.458C192.719 14.6393 192.923 14.8773 193.15 15.172C193.376 15.4667 193.49 15.648 193.49 15.716C193.49 16.056 193.116 16.226 192.368 16.226ZM193.388 37.782C193.07 37.7593 192.832 37.2493 192.674 36.252C192.538 35.2547 192.39 33.362 192.232 30.574C192.141 28.738 192.062 26.9473 191.994 25.202C191.926 23.434 191.88 22.074 191.858 21.122C191.858 20.8727 191.892 20.6913 191.96 20.578C192.05 20.442 192.209 20.374 192.436 20.374C192.957 20.374 193.286 20.5893 193.422 21.02C193.558 21.4507 193.626 22.278 193.626 23.502L193.592 27.514C193.592 29.8033 193.66 31.6393 193.796 33.022C193.796 33.09 193.898 33.8153 194.102 35.198C194.26 36.15 194.34 36.7847 194.34 37.102C194.34 37.3287 194.238 37.4987 194.034 37.612C193.852 37.748 193.637 37.8047 193.388 37.782ZM211.57 17.11C211.411 17.11 211.287 17.042 211.196 16.906C211.128 16.7473 211.06 16.5433 210.992 16.294C210.743 15.5233 210.357 14.8773 209.836 14.356C209.337 13.812 208.793 13.54 208.204 13.54C206.617 13.54 205.473 14.6167 204.77 16.77C204.09 18.9007 203.75 21.4053 203.75 24.284C204.43 24.2387 205.189 24.1367 206.028 23.978C206.889 23.7967 207.456 23.6833 207.728 23.638C209.337 23.298 210.403 23.128 210.924 23.128C211.377 23.128 211.604 23.332 211.604 23.74C211.604 24.0573 211.536 24.3973 211.4 24.76C211.264 25.1227 211.06 25.304 210.788 25.304C210.561 25.304 210.335 25.2587 210.108 25.168C209.791 25.032 209.36 24.964 208.816 24.964C208.453 24.964 207.705 25.0773 206.572 25.304L203.852 25.712C203.852 26.2787 203.92 27.854 204.056 30.438C204.283 34.4273 204.396 37.612 204.396 39.992C204.396 40.4227 204.351 40.7173 204.26 40.876C204.169 41.0573 203.988 41.148 203.716 41.148C203.399 41.148 203.161 40.9667 203.002 40.604C202.843 40.2413 202.764 39.8333 202.764 39.38C202.764 36.7733 202.594 32.682 202.254 27.106L202.186 26.018C202.005 26.0407 201.415 26.1427 200.418 26.324C199.443 26.5053 198.729 26.596 198.276 26.596C198.027 26.596 197.811 26.5393 197.63 26.426C197.471 26.3127 197.392 26.1427 197.392 25.916C197.392 25.3493 197.596 25.0547 198.004 25.032C198.593 25.0093 199.307 24.964 200.146 24.896C200.985 24.8053 201.631 24.7147 202.084 24.624C202.084 20.9067 202.583 17.892 203.58 15.58C204.6 13.2453 206.107 12.078 208.102 12.078C208.827 12.078 209.496 12.2593 210.108 12.622C210.743 12.9847 211.241 13.4267 211.604 13.948C211.989 14.4693 212.182 14.9453 212.182 15.376C212.182 15.648 212.114 16.0107 211.978 16.464C211.865 16.8947 211.729 17.11 211.57 17.11ZM223.807 25.372C223.535 27.3667 223.388 28.4887 223.365 28.738C223.071 31.526 222.855 33.6567 222.719 35.13C222.606 36.5807 222.549 37.8953 222.549 39.074C222.549 40.0487 222.617 40.8193 222.753 41.386C222.912 41.9527 223.071 42.3947 223.229 42.712C223.411 43.052 223.501 43.256 223.501 43.324C223.501 43.528 223.32 43.7093 222.957 43.868C222.595 44.0267 222.221 44.106 221.835 44.106C221.541 44.106 221.303 43.7093 221.121 42.916C220.963 42.1227 220.883 40.8873 220.883 39.21C220.883 37.9407 221.008 36.2293 221.257 34.076L221.767 29.384C221.155 30.5627 220.396 31.696 219.489 32.784C218.605 33.8493 217.687 34.382 216.735 34.382C215.851 34.382 215.058 33.6113 214.355 32.07C213.653 30.5287 213.097 28.7833 212.689 26.834C212.304 24.8847 212.111 23.4567 212.111 22.55C212.111 21.9833 212.281 21.7 212.621 21.7C213.12 21.7 213.437 22.1647 213.573 23.094C214.435 29.3953 215.636 32.546 217.177 32.546C217.789 32.546 218.322 32.308 218.775 31.832C219.251 31.3333 219.807 30.574 220.441 29.554C220.736 29.078 221.053 28.4433 221.393 27.65C221.733 26.8567 221.994 26.1993 222.175 25.678L222.413 22.244C222.459 21.7227 222.527 21.36 222.617 21.156C222.708 20.9293 222.889 20.816 223.161 20.816C223.388 20.816 223.615 20.952 223.841 21.224C224.068 21.4733 224.181 21.7227 224.181 21.972C224.181 22.4933 224.057 23.6267 223.807 25.372Z" fill="#03053D"/>
<path d="M13.7727 46.6875V39.8125M25.5455 29.5H32.2727M25.5455 22.625H32.2727M25.5455 15.75H32.2727M25.5455 8.875H39M18.8182 7.15625V34.0953C22.7956 36.0263 25.5455 40.1693 25.5455 44.9688C25.5455 51.6134 20.2746 57 13.7727 57C7.27083 57 2 51.6134 2 44.9688C2 40.1693 4.74986 36.0263 8.72727 34.0953V7.15625C8.72727 4.30853 10.9862 2 13.7727 2C16.5593 2 18.8182 4.30853 18.8182 7.15625Z" stroke="#EE7F00" stroke-width="3" stroke-linecap="round" stroke-linejoin="round"/>
</svg>
