<svg width="33" height="27" viewBox="0 0 33 27" fill="none" xmlns="http://www.w3.org/2000/svg">
<path d="M7.01506 9.82244C7.1583 8.53329 7.22992 7.88871 7.37035 7.34217C8.17583 4.20725 10.791 1.86658 13.9957 1.41222C14.5544 1.33301 15.2029 1.33301 16.5 1.33301V1.33301C17.7971 1.33301 18.4456 1.33301 19.0043 1.41222C22.209 1.86658 24.8242 4.20725 25.6297 7.34217C25.7701 7.88871 25.8417 8.53329 25.9849 9.82243L26.4151 13.6939C26.5566 14.967 26.6273 15.6035 26.796 16.2154C26.8761 16.5062 26.9727 16.7921 27.0851 17.072C27.3217 17.6609 27.6513 18.2101 28.3103 19.3085L30.0576 22.2207C30.8634 23.5636 31.2662 24.2351 30.979 24.7424C30.6918 25.2497 29.9087 25.2497 28.3426 25.2497H4.65738C3.09127 25.2497 2.30822 25.2497 2.02099 24.7424C1.73376 24.2351 2.13664 23.5636 2.94239 22.2207L4.6897 19.3085C5.34874 18.2101 5.67825 17.6609 5.9149 17.072C6.02735 16.7921 6.12387 16.5062 6.20403 16.2154C6.37272 15.6035 6.44345 14.967 6.5849 13.6939L7.01506 9.82244Z" stroke="#8C92AB" stroke-width="2"/>
</svg>
