<svg width="23" height="22" viewBox="0 0 23 22" fill="none" xmlns="http://www.w3.org/2000/svg">
<path d="M1.5 3.5C1.5 2.32149 1.5 1.73223 1.86612 1.36612C2.23223 1 2.82149 1 4 1H6.5C7.67851 1 8.26777 1 8.63388 1.36612C9 1.73223 9 2.32149 9 3.5V7.25C9 8.42851 9 9.01777 8.63388 9.38388C8.26777 9.75 7.67851 9.75 6.5 9.75H4C2.82149 9.75 2.23223 9.75 1.86612 9.38388C1.5 9.01777 1.5 8.42851 1.5 7.25V3.5Z" stroke="#313545" stroke-width="2" stroke-linejoin="round"/>
<path d="M1.5 17.25C1.5 16.0715 1.5 15.4822 1.86612 15.1161C2.23223 14.75 2.82149 14.75 4 14.75H6.5C7.67851 14.75 8.26777 14.75 8.63388 15.1161C9 15.4822 9 16.0715 9 17.25V18.5C9 19.6785 9 20.2678 8.63388 20.6339C8.26777 21 7.67851 21 6.5 21H4C2.82149 21 2.23223 21 1.86612 20.6339C1.5 20.2678 1.5 19.6785 1.5 18.5V17.25Z" stroke="#313545" stroke-width="2" stroke-linejoin="round"/>
<path d="M14 3.5C14 2.32149 14 1.73223 14.3661 1.36612C14.7322 1 15.3215 1 16.5 1H19C20.1785 1 20.7678 1 21.1339 1.36612C21.5 1.73223 21.5 2.32149 21.5 3.5V4.75C21.5 5.92851 21.5 6.51777 21.1339 6.88388C20.7678 7.25 20.1785 7.25 19 7.25H16.5C15.3215 7.25 14.7322 7.25 14.3661 6.88388C14 6.51777 14 5.92851 14 4.75V3.5Z" stroke="#313545" stroke-width="2" stroke-linejoin="round"/>
<path d="M14 14.75C14 13.5715 14 12.9822 14.3661 12.6161C14.7322 12.25 15.3215 12.25 16.5 12.25H19C20.1785 12.25 20.7678 12.25 21.1339 12.6161C21.5 12.9822 21.5 13.5715 21.5 14.75V18.5C21.5 19.6785 21.5 20.2678 21.1339 20.6339C20.7678 21 20.1785 21 19 21H16.5C15.3215 21 14.7322 21 14.3661 20.6339C14 20.2678 14 19.6785 14 18.5V14.75Z" stroke="#313545" stroke-width="2" stroke-linejoin="round"/>
</svg>
