<svg width="17" height="18" viewBox="0 0 17 18" fill="none" xmlns="http://www.w3.org/2000/svg">
<path fill-rule="evenodd" clip-rule="evenodd" d="M10.0481 12.2269C9.09081 12.8228 7.9606 13.167 6.75 13.167C3.29822 13.167 0.5 10.3688 0.5 6.91699C0.5 3.46521 3.29822 0.666992 6.75 0.666992C10.2018 0.666992 13 3.46521 13 6.91699C13 8.55508 12.3698 10.046 11.3387 11.1605L16.0893 15.9111C16.4147 16.2365 16.4147 16.7641 16.0893 17.0896C15.7638 17.415 15.2362 17.415 14.9107 17.0896L10.0481 12.2269ZM11.3333 6.91699C11.3333 9.4483 9.28131 11.5003 6.75 11.5003C4.21869 11.5003 2.16667 9.4483 2.16667 6.91699C2.16667 4.38569 4.21869 2.33366 6.75 2.33366C9.28131 2.33366 11.3333 4.38569 11.3333 6.91699Z" fill="#1E202C"/>
</svg>
