<svg width="25" height="26" viewBox="0 0 25 26" fill="none" xmlns="http://www.w3.org/2000/svg">
<path fill-rule="evenodd" clip-rule="evenodd" d="M12.375 25.375C19.2095 25.375 24.75 19.8345 24.75 13C24.75 6.16548 19.2095 0.625 12.375 0.625C5.54048 0.625 0 6.16548 0 13C0 19.8345 5.54048 25.375 12.375 25.375ZM13.375 5.4375C13.375 4.88522 12.9273 4.4375 12.375 4.4375C11.8227 4.4375 11.375 4.88522 11.375 5.4375V12.75C11.375 13.4404 11.9346 14 12.625 14H17.1875C17.7398 14 18.1875 13.5523 18.1875 13C18.1875 12.4477 17.7398 12 17.1875 12H13.375V5.4375Z" fill="#D9DDEA"/>
</svg>
