<svg width="21" height="19" viewBox="0 0 21 19" fill="none" xmlns="http://www.w3.org/2000/svg">
<path d="M1.50001 3.5V3.5C1.50001 2.11929 2.6193 1 4.00001 1L17.7857 1C17.9852 1 18.085 1 18.1651 1.02806C18.3088 1.07831 18.4217 1.19124 18.4719 1.33486C18.5 1.41505 18.5 1.51479 18.5 1.71429V1.71429C18.5 2.91124 18.5 3.50972 18.3317 3.99084C18.0301 4.85258 17.3526 5.53011 16.4908 5.83165C16.0097 6 15.4112 6 14.2143 6L13.5 6M1.50001 3.5V3.5C1.50001 4.88071 2.61929 6 4.00001 6L17.5 6C18.4428 6 18.9142 6 19.2071 6.29289C19.5 6.58579 19.5 7.05719 19.5 8L19.5 10M1.50001 3.5L1.50001 14C1.50001 15.8856 1.50001 16.8284 2.08579 17.4142C2.67158 18 3.61439 18 5.50001 18L17.5 18C18.4428 18 18.9142 18 19.2071 17.7071C19.5 17.4142 19.5 16.9428 19.5 16L19.5 14M19.5 14H15.5C14.5572 14 14.0858 14 13.7929 13.7071C13.5 13.4142 13.5 12.9428 13.5 12V12C13.5 11.0572 13.5 10.5858 13.7929 10.2929C14.0858 10 14.5572 10 15.5 10H19.5M19.5 14L19.5 10" stroke="#313545" stroke-width="2"/>
</svg>
